<svg width="27" height="27" viewBox="0 0 27 27" fill="none" xmlns="http://www.w3.org/2000/svg">
  <g clip-path="url(#clip0_1_4888)">
    <path
      d="M2.25 21.375H24.75L22.5 23.625H4.5L2.25 21.375ZM5.625 6.75H6.75V7.875H5.625V6.75ZM5.625 4.5H6.75V5.625H5.625V4.5ZM10.125 4.5V5.625H7.875V4.5H10.125ZM10.125 7.875H7.875V6.75H10.125V7.875ZM6.75 17.1337C6.345 17.2575 5.97375 17.4487 5.625 17.6625V9H6.75V17.1337ZM4.5 18.585C4.0725 19.08 3.735 19.6313 3.555 20.25H22.4775C22.4887 20.07 22.5112 19.8787 22.5112 19.6875C22.5131 18.255 22.0176 16.8662 21.1093 15.7584C20.201 14.6507 18.9362 13.8926 17.5311 13.6137C16.126 13.3348 14.6676 13.5524 13.4051 14.2292C12.1425 14.9061 11.1542 16.0003 10.6088 17.325C9.945 17.0437 9.21375 16.875 8.4375 16.875C8.24625 16.875 8.06625 16.8975 7.875 16.92V9H10.125C11.2837 9.0675 12.2625 7.92 12.375 6.75H23.625V5.625H12.375C12.2625 4.44375 11.2837 3.40875 10.125 3.375H3.375V4.5H4.5V5.625H3.375V6.75H4.5V7.875H3.375V9H4.5V18.585Z"
      fill="#C1FF72" />
  </g>
  <defs>
    <clipPath id="clip0_1_4888">
      <rect width="27" height="27" fill="white" />
    </clipPath>
  </defs>
</svg>