<svg width="29" height="23" viewBox="0 0 29 23" fill="none" xmlns="http://www.w3.org/2000/svg">
  <path d="M25.6814 8.33535L20.9495 1.57734L23.2021 0L27.9341 6.758L25.6814 8.33535Z" fill="#C1FF72" />
  <path
    d="M23.091 11.8272L20.7251 8.44833L9.46166 16.335L11.8276 19.714L9.57496 21.2914L3.26562 12.2806L5.51829 10.7033L7.88433 14.0824L19.1477 6.19567L16.7817 2.81659L19.0344 1.23926L25.3437 10.25L23.091 11.8272Z"
    fill="#C1FF72" />
  <path d="M26.3567 4.5053L28.6094 2.92797L27.032 0.675293L24.7793 2.25262L26.3567 4.5053Z" fill="#C1FF72" />
  <path d="M7.65996 20.9539L2.92796 14.1958L0.675293 15.7732L5.4073 22.5312L7.65996 20.9539Z" fill="#C1FF72" />
  <path d="M3.83001 20.2785L1.57733 21.8558L0 19.6031L2.25266 18.0259L3.83001 20.2785Z" fill="#C1FF72" />
</svg>