<svg width="20" height="20" viewBox="0 0 20 20" fill="none" xmlns="http://www.w3.org/2000/svg">
  <path
    d="M10 10C12.7617 10 15 7.76172 15 5C15 2.23828 12.7617 0 10 0C7.23828 0 5 2.23828 5 5C5 7.76172 7.23828 10 10 10ZM5.3125 16.5625C5.3125 17.082 5.73047 17.5 6.25 17.5C6.76953 17.5 7.1875 17.082 7.1875 16.5625C7.1875 16.043 6.76953 15.625 6.25 15.625C5.73047 15.625 5.3125 16.043 5.3125 16.5625ZM13.75 11.2734V13.1875C15.1758 13.4766 16.25 14.7422 16.25 16.25V17.8789C16.25 18.1758 16.0391 18.4336 15.7461 18.4922L14.4883 18.7422C14.3203 18.7773 14.1562 18.668 14.1211 18.4961L14 17.8828C13.9648 17.7148 14.0742 17.5469 14.2461 17.5156L15 17.3633V16.25C15 13.7969 11.25 13.707 11.25 16.3242V17.3672L12.0039 17.5195C12.1719 17.5547 12.2812 17.7188 12.25 17.8867L12.1289 18.5C12.0938 18.668 11.9297 18.7773 11.7617 18.7461L10.543 18.582C10.2344 18.5391 10.0039 18.2773 10.0039 17.9609V16.25C10.0039 14.7422 11.0781 13.4805 12.5039 13.1875V11.4219C12.418 11.4492 12.332 11.4648 12.2461 11.4961C11.543 11.7422 10.7891 11.8789 10.0039 11.8789C9.21875 11.8789 8.46484 11.7422 7.76172 11.4961C7.47266 11.3945 7.17969 11.332 6.87891 11.293V14.4805C7.78125 14.75 8.44141 15.5781 8.44141 16.5664C8.44141 17.7734 7.46094 18.7539 6.25391 18.7539C5.04688 18.7539 4.06641 17.7734 4.06641 16.5664C4.06641 15.5781 4.72656 14.75 5.62891 14.4805V11.3398C3.14453 11.7578 1.25 13.8984 1.25 16.5V18.25C1.25 19.2148 2.03516 20 3 20H17C17.9648 20 18.75 19.2148 18.75 18.25V16.5C18.75 13.6875 16.5312 11.4102 13.75 11.2734Z"
    fill="#C1FF72" />
</svg>