<svg width="25" height="23" viewBox="0 0 25 23" fill="none" xmlns="http://www.w3.org/2000/svg">
  <path
    d="M12.251 0.849121C11.084 0.983437 10.0391 2.22598 10.0391 3.85844C10.0391 4.75283 10.3711 5.53896 10.8594 6.08701L11.4551 6.73838L10.542 6.89561C9.90723 7.00791 9.43848 7.32236 9.04297 7.82998C8.62793 8.34658 8.32031 9.03838 8.11035 9.86045C7.71973 11.3294 7.62695 13.1263 7.62695 14.721H9.75586L10.3271 21.931C11.8115 22.2454 13.4082 22.2229 14.834 21.931L15.3564 14.721H17.3828C17.3828 13.1173 17.3584 11.289 17.002 9.79307C16.8115 8.98897 16.5137 8.2792 16.1133 7.76709C15.7129 7.26846 15.21 6.96748 14.4873 6.86416L13.5645 6.72939L14.1455 6.06006C14.6289 5.5165 14.9463 4.73037 14.9463 3.85844C14.9463 2.12715 13.7744 0.849121 12.4902 0.849121H12.251ZM19.3311 1.01039V2.89037H17.29V5.14365H19.3311V7.0124H21.7676V5.14365H23.8135V2.89037H21.7676V1.01039H19.3311ZM2.58398 2.82523V4.19895H1.09326V5.84443H2.58398V7.21006H4.36133V5.84443H5.85449V4.19895H4.36133V2.82523H2.58398ZM4.52295 8.971V9.95029H3.45459V11.1317H4.52295V12.1155H5.80566V11.1317H6.87012V9.95029H5.80566V8.971H4.52295ZM21.8604 11.7741V12.7534H20.791V13.9349H21.8604V14.9187H23.1445V13.9349H24.209V12.7534H23.1445V11.7741H21.8604ZM6.8457 16.2394V16.9132H6.11328V17.7218H6.8457V18.3956H7.72949V17.7218H8.46192V16.9132H7.72949V16.2394H6.8457ZM18.0762 18.2968V18.9706H17.3438V19.7792H18.0762V20.453H18.9551V19.7792H19.6875V18.9706H18.9551V18.2968H18.0762ZM2.4082 19.3974V20.0712H1.67578V20.8798H2.4082V21.5536H3.2876V20.8798H4.02002V20.0712H3.2876V19.3974H2.4082Z"
    fill="#C1FF72" />
</svg>